# Created with Anim8or 1.00
# Object "object01":

mtllib Obamium.mtl

# Begin Group:
# Shape "mesh01":
g mesh01
# No. points 8:
v 17.5 -17.5 -17.5
v -17.5 -17.5 -17.5
v 0.01108 17.5 -0.01108
v -0.01108 17.5 -0.01108
v 17.5 -17.5 17.5
v -17.5 -17.5 17.5
v 0.01108 17.5 0.01108
v -0.01108 17.5 0.01108

# No. normals 10:
vn -0.89454 0.44699 0
vn 0 1 0
vn -0.89454 0.44699 0
vn 0 1 0
vn -0.89454 0.44699 0
vn 0 1 0
vn -0.89454 0.44699 0
vn 0 1 0
vn -0.89454 0.44699 0
vn 0 1 0

# No. texture coordinates 6:
vt 0.13072 0.10049
vt 0.52301 0.86735
vt 0.52351 0.86735
vt 0.91580 0.10049
vt 0.52301 0.86739
vt 0.52351 0.86739

# No. faces 2:

usemtl material04

f 6/4/7 8/3/9 4/2/5 2/1/3
f 4/2/6 8/3/10 7/6/8 3/5/4

# Shape "mesh02":
g mesh02
# No. points 8:
v -17.5 -17.5 -17.5
v -17.5 -17.5 17.5
v -0.01108 17.5 -0.01108
v -0.01108 17.5 0.01108
v 17.5 -17.5 -17.5
v 17.5 -17.5 17.5
v 0.01108 17.5 -0.01108
v 0.01108 17.5 0.01108

# No. normals 10:
vn 0 1 0
vn 0 -1 0
vn 0 -1 0
vn 0 -1 0
vn 0 1 0
vn 0 1 0
vn 0 -1 0
vn 0 -1 0
vn 0 1 0
vn 0 1 0

# No. texture coordinates 8:
vt 0.49970 0.50030
vt 0.50030 0.50030
vt 0.50030 0.49970
vt 0.49970 0.49970
vt 0.02000 0.98000
vt 0.02000 0.02000
vt 0.98000 0.02000
vt 0.98000 0.98000

# No. faces 2:

usemtl material01

f 12/10/16 16/9/20 15/8/19 11/7/15
f 13/14/17 14/13/18 10/12/14 9/11/13

# Shape "mesh03":
g mesh03
# No. points 8:
v 17.5 -17.5 17.5
v 17.5 -17.5 -17.5
v 0.01108 17.5 0.01108
v 0.01108 17.5 -0.01108
v -17.5 -17.5 17.5
v -17.5 -17.5 -17.5
v -0.01108 17.5 0.01108
v -0.01108 17.5 -0.01108

# No. normals 10:
vn 0 0.44699 -0.89454
vn 0 1 0
vn 0 0.44699 -0.89454
vn 0 1 0
vn 0 0.44699 -0.89454
vn 0 1 0
vn 0 0.44699 -0.89454
vn 0 1 0
vn 0 0.44699 -0.89454
vn 0 1 0

# No. texture coordinates 6:
vt 0.09375 0.06191
vt 0.52531 0.90283
vt 0.52586 0.90283
vt 0.95743 0.06191
vt 0.52531 0.90287
vt 0.52586 0.90287

# No. faces 2:

usemtl material05

f 22/18/27 24/17/29 20/16/25 18/15/23
f 20/16/26 24/17/30 23/20/28 19/19/24

# Shape "mesh04":
g mesh04
# No. points 8:
v -17.5 -17.5 17.5
v 17.5 -17.5 17.5
v -0.01108 17.5 0.01108
v 0.01108 17.5 0.01108
v -17.5 -17.5 -17.5
v 17.5 -17.5 -17.5
v -0.01108 17.5 -0.01108
v 0.01108 17.5 -0.01108

# No. normals 10:
vn 0.89454 0.44699 0
vn 0 1 0
vn 0.89454 0.44699 0
vn 0 1 0
vn 0.89454 0.44699 0
vn 0 1 0
vn 0.89454 0.44699 0
vn 0 1 0
vn 0.89454 0.44699 0
vn 0 1 0

# No. texture coordinates 6:
vt 0.08969 0.08600
vt 0.52557 0.88067
vt 0.52612 0.88067
vt 0.96200 0.08600
vt 0.52557 0.88071
vt 0.52612 0.88071

# No. faces 2:

usemtl material03

f 30/24/37 32/23/39 28/22/35 26/21/33
f 28/22/36 32/23/40 31/26/38 27/25/34

# Shape "mesh05":
g mesh05
# No. points 8:
v 17.5 -17.5 -17.5
v -17.5 -17.5 -17.5
v 0.01108 17.5 -0.01108
v -0.01108 17.5 -0.01108
v 17.5 -17.5 17.5
v -17.5 -17.5 17.5
v 0.01108 17.5 0.01108
v -0.01108 17.5 0.01108

# No. normals 10:
vn -0.89454 0.44699 0
vn 0 1 0
vn -0.89454 0.44699 0
vn 0 1 0
vn -0.89454 0.44699 0
vn 0 1 0
vn -0.89454 0.44699 0
vn 0 1 0
vn -0.89454 0.44699 0
vn 0 1 0

# No. texture coordinates 6:
vt 0.13072 0.10049
vt 0.52301 0.86735
vt 0.52351 0.86735
vt 0.91580 0.10049
vt 0.52301 0.86739
vt 0.52351 0.86739

# No. faces 2:

usemtl material04

f 38/30/47 40/29/49 36/28/45 34/27/43
f 36/28/46 40/29/50 39/32/48 35/31/44

# Shape "mesh06":
g mesh06
# No. points 8:
v -17.5 -17.5 -17.5
v -17.5 -17.5 17.5
v -0.01108 17.5 -0.01108
v -0.01108 17.5 0.01108
v 17.5 -17.5 -17.5
v 17.5 -17.5 17.5
v 0.01108 17.5 -0.01108
v 0.01108 17.5 0.01108

# No. normals 10:
vn 0 0.44699 0.89454
vn 0 1 0
vn 0 0.44699 0.89454
vn 0 1 0
vn 0 0.44699 0.89454
vn 0 1 0
vn 0 0.44699 0.89454
vn 0 1 0
vn 0 0.44699 0.89454
vn 0 1 0

# No. texture coordinates 6:
vt 0.09375 0.06191
vt 0.52531 0.90283
vt 0.52586 0.90283
vt 0.95743 0.06191
vt 0.52531 0.90287
vt 0.52586 0.90287

# No. faces 2:

usemtl material02

f 46/36/57 48/35/59 44/34/55 42/33/53
f 44/34/56 48/35/60 47/38/58 43/37/54

# End Group:

# End of Object "object01"
